<svg width="608" height="608" viewBox="0 0 608 608" fill="none" xmlns="http://www.w3.org/2000/svg">
<path fill-rule="evenodd" clip-rule="evenodd" d="M214.521 101.215C179.508 108.437 142.262 124.277 142.262 124.277C160.704 98.9068 198.138 67.8262 198.138 67.8262C187.838 48.2802 178.718 19.3409 178.718 19.3409C178.718 19.3409 222.009 21.7405 255.894 32.85C255.894 32.85 313.462 0.979576 373.112 0C373.112 0 329.634 25.3551 311.161 48.9636C316.063 51.5682 350.835 62.0778 377.916 78.1991C377.916 78.1991 328.957 79.5963 284.027 85.8079C284.027 85.8079 268.209 108.346 254.834 159.641C254.826 159.641 231.79 134.012 214.521 101.215Z" fill="black"/>
<path fill-rule="evenodd" clip-rule="evenodd" d="M447.115 143.686C417.471 110.381 377.909 78.1991 377.909 78.1991C414.298 78.7231 468.302 100.41 468.302 100.41C478.858 80.257 486.248 52.5251 486.248 52.5251C486.248 52.5251 506.909 87.843 516.292 126.897C516.292 126.897 559.184 152.837 591.55 196.249C591.55 196.249 557.778 189.134 532.915 189.256C532.839 194.86 542.034 240.938 540.034 272.618C540.034 272.618 512.502 227.429 486.669 189.787C486.669 189.787 445.146 190.547 401.517 202.59C401.524 202.59 425.959 174.084 447.115 143.686ZM494.624 360.78C516.487 323.549 540.042 272.626 540.042 272.626C547.267 306.683 547.914 350.134 547.914 350.134C569.604 345.517 608 326.913 608 326.913C608 326.913 590.896 372.93 552.552 408.218C552.552 408.218 556.432 435.79 556.883 472.171C556.883 472.171 529.764 459.968 507.277 446.322C502.488 449.14 475.309 467.812 429.395 477.411C429.395 477.411 448.837 446.732 464.919 416.768C464.919 416.768 432.906 395.468 407.546 360.56C407.546 360.552 456.852 366.84 494.624 360.78Z" fill="black"/>
<path fill-rule="evenodd" clip-rule="evenodd" d="M339.964 284.806C373.503 326.768 407.539 360.56 407.539 360.56C351.933 352.215 306.785 336.465 306.785 336.465C284.2 373.036 259.555 415.553 259.555 415.553C259.555 415.553 245.774 369.429 243.444 317.079C243.444 317.079 215.513 307.207 164.035 286.735C164.035 286.735 199.544 264.47 242.519 252.328C240.008 247.324 246.594 185.087 254.834 159.648C254.834 159.648 279.892 200.676 300.297 230.838C300.297 230.838 340.234 217.155 401.531 202.59C401.524 202.59 367.985 245.577 339.964 284.806ZM34.652 443.528C31.2752 437.111 28.1279 430.574 25.2165 423.929C25.8029 401.672 27.7727 373.006 33.4115 350.772C33.4115 350.772 17.2546 339.45 0.548852 324.733C0.360894 322.174 0.142848 319.592 0 317.003C9.59339 313.388 29.9606 306.121 47.7489 301.96C49.7864 296.728 60.8609 260.681 82.2656 235.812C82.2656 235.812 83.7091 260.317 89.5283 292.939C89.5283 292.939 123.316 285.209 164.027 286.72C164.027 286.72 126.3 316.73 102.543 347.218C111.159 382.369 128.496 416.107 128.496 416.107C102.588 401.3 75.1833 381.685 75.1833 381.685C65.5598 393.243 46.2152 424.422 34.652 443.528ZM250.18 603.138C245.986 602.375 241.813 601.507 237.662 600.533C223.52 585.217 201.95 560.211 185.477 533.93C185.477 533.93 124.714 528.979 81.8972 510.04C81.8972 510.04 117.309 503.32 156.193 483.068C153.682 478.064 138.856 450.453 128.488 416.122C128.488 416.122 165.629 446.429 193.146 464.167C193.146 464.167 228.121 443.847 259.555 415.553C259.555 415.553 251.578 454.66 247.165 499.326C267.474 511.04 287.951 522.455 308.59 533.565C276.885 538.228 245.676 537.248 245.676 537.248C244.443 562.049 247.744 588.118 250.18 603.138ZM514.532 523.39C514.532 523.39 472.625 534.575 431.725 536.124C431.725 536.124 431.417 507.944 429.387 477.411C429.387 477.411 407.666 508.544 379.315 538.486C345.836 538 308.59 533.565 308.59 533.565C321.362 546.695 334.502 559.462 347.993 571.837C322.777 593.487 299.47 607.952 299.47 607.952C302.778 607.998 306.146 608.021 309.477 607.975C389.074 606.661 461.009 574.662 514.532 523.39Z" fill="black"/>
</svg>
