<svg width="380" height="380" viewBox="0 0 380 380" fill="none" xmlns="http://www.w3.org/2000/svg">
<path fill-rule="evenodd" clip-rule="evenodd" d="M134.075 63.2596C112.192 67.773 88.9136 77.6732 88.9136 77.6732C100.44 61.8168 123.836 42.3914 123.836 42.3914C117.399 30.1751 111.699 12.0881 111.699 12.0881C111.699 12.0881 138.755 13.5878 159.934 20.5312C159.934 20.5312 195.913 0.612235 233.195 0C233.195 0 206.021 15.8469 194.476 30.6023C197.539 32.2301 219.272 38.7986 236.198 48.8744C236.198 48.8744 205.598 49.7477 177.517 53.6299C177.517 53.6299 167.63 67.716 159.271 99.7753C159.266 99.7753 144.869 83.7576 134.075 63.2596Z" fill="black"/>
<path fill-rule="evenodd" clip-rule="evenodd" d="M279.447 89.8041C260.919 68.9881 236.193 48.8745 236.193 48.8745C258.936 49.202 292.689 62.7566 292.689 62.7566C299.286 50.1607 303.905 32.8282 303.905 32.8282C303.905 32.8282 316.818 54.9019 322.682 79.3107C322.682 79.3107 349.49 95.523 369.719 122.656C369.719 122.656 348.611 118.209 333.072 118.285C333.025 121.787 338.772 150.586 337.522 170.387C337.522 170.387 320.314 142.143 304.169 118.617C304.169 118.617 278.216 119.092 250.948 126.619C250.953 126.619 266.225 108.802 279.447 89.8041ZM309.14 225.488C322.805 202.218 337.526 170.391 337.526 170.391C342.042 191.677 342.446 218.834 342.446 218.834C356.003 215.948 380 204.321 380 204.321C380 204.321 369.31 233.081 345.346 255.136C345.346 255.136 347.77 272.369 348.052 295.107C348.052 295.107 331.103 287.48 317.048 278.951C314.055 280.712 297.068 292.383 268.372 298.382C268.372 298.382 280.523 279.208 290.574 260.48C290.574 260.48 270.566 247.167 254.717 225.35C254.717 225.345 285.533 229.275 309.14 225.488Z" fill="black"/>
<path fill-rule="evenodd" clip-rule="evenodd" d="M212.477 178.004C233.439 204.23 254.712 225.35 254.712 225.35C219.958 220.134 191.741 210.291 191.741 210.291C177.625 233.148 162.222 259.721 162.222 259.721C162.222 259.721 153.609 230.893 152.152 198.174C152.152 198.174 134.696 192.005 102.522 179.209C102.522 179.209 124.715 165.294 151.574 157.705C150.005 154.578 154.121 115.679 159.271 99.7802C159.271 99.7802 174.933 125.423 187.686 144.274C187.686 144.274 212.647 135.722 250.957 126.619C250.952 126.619 229.99 153.486 212.477 178.004ZM21.6575 277.205C19.547 273.195 17.58 269.109 15.7603 264.955C16.1268 251.045 17.3579 233.129 20.8822 219.232C20.8822 219.232 10.7841 212.156 0.343033 202.958C0.225559 201.359 0.0892802 199.745 0 198.127C5.99587 195.868 18.7254 191.326 29.8431 188.725C31.1165 185.455 38.0381 162.926 51.416 147.383C51.416 147.383 52.3182 162.698 55.9552 183.087C55.9552 183.087 77.0723 178.255 102.517 179.2C102.517 179.2 78.9378 197.956 64.0891 217.011C69.4741 238.981 80.3099 260.067 80.3099 260.067C64.1173 250.812 46.9896 238.553 46.9896 238.553C40.9749 245.777 28.8845 265.264 21.6575 277.205ZM156.362 376.961C153.742 376.484 151.133 375.942 148.539 375.333C139.7 365.761 126.219 350.132 115.923 333.706C115.923 333.706 77.9463 330.612 51.1857 318.775C51.1857 318.775 73.3178 314.575 97.6208 301.917C96.0514 298.79 86.785 281.533 80.3052 260.077C80.3052 260.077 103.518 279.018 120.716 290.105C120.716 290.105 142.576 277.404 162.222 259.721C162.222 259.721 157.236 284.163 154.478 312.079C167.171 319.4 179.969 326.534 192.869 333.478C173.053 336.392 153.548 335.78 153.548 335.78C152.777 351.281 154.84 367.574 156.362 376.961ZM321.583 327.119C321.583 327.119 295.391 334.11 269.828 335.078C269.828 335.078 269.636 317.465 268.367 298.382C268.367 298.382 254.792 317.84 237.072 336.554C216.147 336.25 192.869 333.478 192.869 333.478C200.852 341.684 209.064 349.664 217.496 357.398C201.736 370.929 187.169 379.97 187.169 379.97C189.236 379.999 191.342 380.013 193.423 379.985C243.171 379.163 288.131 359.164 321.583 327.119Z" fill="black"/>
<path d="M60.378 48.5556L71.1593 39.9998L60.378 79.3565H88.7498L53.5688 107.306L50.7317 150.085L42.2201 138.677L35.4109 131.262L32.5738 125.558L14.9833 141.529L2.49976 157.5L4.76949 141.529L14.9833 113.58L22.36 98.1794L42.2201 68.5192L60.378 48.5556Z" fill="black"/>
<path d="M60.378 48.5556L71.1593 39.9998L60.378 79.3565H88.7498L53.5688 107.306L50.7317 150.085L42.2201 138.677L35.4109 131.262L32.5738 125.558L14.9833 141.529L2.49976 157.5L4.76949 141.529L14.9833 113.58L22.36 98.1794L42.2201 68.5192L60.378 48.5556Z" stroke="black"/>
<path d="M60.378 48.5556L71.1593 39.9998L60.378 79.3565H88.7498L53.5688 107.306L50.7317 150.085L42.2201 138.677L35.4109 131.262L32.5738 125.558L14.9833 141.529L2.49976 157.5L4.76949 141.529L14.9833 113.58L22.36 98.1794L42.2201 68.5192L60.378 48.5556Z" stroke="black"/>
</svg>
