<svg width="141" height="192" viewBox="0 0 141 192" fill="none" xmlns="http://www.w3.org/2000/svg">
<path d="M93.6053 15.6893L110.855 2L93.6053 64.9709H139L82.7105 109.689L78.1711 178.136L64.5526 159.883L53.6579 148.019L49.1184 138.893L20.9737 164.447L1 190L4.63158 164.447L20.9737 119.728L32.7763 95.0874L64.5526 47.6311L93.6053 15.6893Z" fill="black"/>
<path d="M93.6053 15.6893L110.855 2L93.6053 64.9709H139L82.7105 109.689L78.1711 178.136L64.5526 159.883L53.6579 148.019L49.1184 138.893L20.9737 164.447L1 190L4.63158 164.447L20.9737 119.728L32.7763 95.0874L64.5526 47.6311L93.6053 15.6893Z" stroke="black"/>
<path d="M93.6053 15.6893L110.855 2L93.6053 64.9709H139L82.7105 109.689L78.1711 178.136L64.5526 159.883L53.6579 148.019L49.1184 138.893L20.9737 164.447L1 190L4.63158 164.447L20.9737 119.728L32.7763 95.0874L64.5526 47.6311L93.6053 15.6893Z" stroke="black"/>
</svg>
